<?xml version="1.0" encoding="utf-8"?>
<!-- Generator: Adobe Illustrator 23.0.3, SVG Export Plug-In . SVG Version: 6.00 Build 0)  -->
<svg version="1.1" id="Layer_1" xmlns="http://www.w3.org/2000/svg" xmlns:xlink="http://www.w3.org/1999/xlink" x="0px" y="0px"
	 viewBox="0 0 700 700" style="enable-background:new 0 0 700 700;" xml:space="preserve">
<style type="text/css">
	.st0{fill:#231F20;}
</style>
<g>
	<path class="st0" d="M149.7,533.2c-2.6-2.5-3.8-5.4-3.8-8.5c0-2.3,0.2-4.1,0.6-5.3l136.9-376.6c3.9-11.4,11.8-17,23.5-17h91.7
		c11.8,0,19.6,5.7,23.5,17l136.9,376.6c0.4,1.2,0.6,2.9,0.6,5.3c0,3.1-1.3,6-3.8,8.5c-2.6,2.6-5.4,3.8-8.5,3.8h-76.4
		c-9.4,0-16.1-4.3-20-12.9l-21.2-57H275.7l-21.2,57c-3.9,8.6-10.6,12.9-20,12.9h-76.4C155,537.1,152.2,535.8,149.7,533.2z
		 M300.4,379h104.6l-52.3-149.8L300.4,379z"/>
</g>
</svg>
